<svg width="1360" height="106" viewBox="0 0 1360 106" fill="none" xmlns="http://www.w3.org/2000/svg">
<rect width="1360" height="106" fill="#03050F"/>
<g clip-path="url(#clip0_6995_140596)">
<path d="M130.124 60.1537H123.145L120.014 73.7695H123.575L124.753 68.6465H126.592L129.763 73.7695H133.662L130.107 68.3476C133.261 67.528 134.334 65.8374 134.533 64.0301C134.732 62.2228 133.725 60.1508 130.121 60.1508L130.124 60.1537ZM130.978 64.2265C130.83 65.5584 129.581 66.344 127.847 66.344H125.286L126.236 62.237H128.937C130.369 62.237 131.115 62.9372 130.975 64.2265H130.978ZM140.086 60.1565H143.67L142.836 63.7711L140.53 73.7638H136.907L140.086 60.1565ZM170.388 59.4023L170.413 73.7609H166.998L167.035 63.5149L159.78 73.7609H156.469L153.467 63.458L148.659 73.7609H144.689L151.79 58.816C152.305 57.8512 152.803 57.4214 153.782 57.4157C154.431 57.4157 155.137 57.7886 155.459 58.9213L158.559 70.1321L166.622 58.6737C167.308 57.7032 167.886 57.4072 168.683 57.4271C169.537 57.4499 170.39 58.0106 170.39 59.4023H170.388ZM194.55 67.2718C194.308 69.4605 195.973 71.1852 198.887 71.2279C200.32 71.2678 201.749 71.0756 203.12 70.6587L202.428 73.6499C201.249 73.8687 200.053 73.983 198.853 73.9915C193.121 73.9915 190.457 71.1454 190.884 67.2035C191.368 62.7522 195.295 59.7581 201.483 59.7581C202.797 59.7777 204.106 59.9322 205.388 60.2192L204.762 62.96C203.551 62.6683 202.308 62.5268 201.062 62.5387C197.453 62.5103 194.874 64.3119 194.553 67.2718H194.55ZM179.769 68.6749L183.102 63.9703L184.144 68.6749H179.769ZM185.362 73.7638H188.823L185.51 61.9097C185.077 60.4725 184.226 60.0939 183.341 60.1708C182.786 60.2192 182.203 60.4554 181.616 61.295L173.02 73.7666H176.547L178.295 70.9774H184.702L185.368 73.7752L185.362 73.7638ZM191.45 43.3104C190.724 43.558 158.695 52.418 158.226 52.529C157.907 52.6281 157.569 52.6413 157.244 52.5673C156.919 52.4934 156.619 52.3348 156.375 52.1077C155.522 51.3308 155.872 50.2521 156.114 49.7056C156.398 49.0624 162.566 36.087 162.566 36.087L137.943 46.4098C136.915 46.7684 136.565 45.9232 136.565 45.9232C136.565 45.9232 136.136 44.9868 137.257 44.4574L164.297 32.3131C164.741 32.1138 165.575 31.7211 166.224 32.3131C166.872 32.9051 166.619 33.7987 166.42 34.3509C166.323 34.6127 161.894 46.9136 161.894 46.9136C161.894 46.9136 188.254 35.6032 189.108 35.2816C190.778 34.6469 192.298 35.0226 193.377 36.2805C193.858 36.8562 194.193 37.5393 194.355 38.2721C194.516 39.0048 194.498 39.7656 194.302 40.4899C193.929 41.7621 193.107 42.7355 191.456 43.299L191.45 43.3104Z" fill="white"/>
</g>
<path d="M994.838 55.844C994.315 55.844 993.844 55.7273 993.424 55.494C993.013 55.2607 992.691 54.934 992.458 54.514C992.225 54.094 992.108 53.6227 992.108 53.1C992.108 52.5773 992.225 52.106 992.458 51.686C992.691 51.266 993.013 50.9393 993.424 50.706C993.844 50.4727 994.315 50.356 994.838 50.356C995.519 50.356 996.084 50.552 996.532 50.944C996.98 51.3267 997.227 51.8493 997.274 52.512H996.168C996.121 52.1573 995.977 51.8773 995.734 51.672C995.501 51.4573 995.197 51.35 994.824 51.35C994.367 51.35 993.989 51.5133 993.69 51.84C993.391 52.1573 993.242 52.5773 993.242 53.1C993.242 53.6227 993.391 54.0473 993.69 54.374C993.989 54.6913 994.367 54.85 994.824 54.85C995.216 54.85 995.533 54.7473 995.776 54.542C996.028 54.3273 996.173 54.0427 996.21 53.688H997.302C997.237 54.36 996.98 54.8873 996.532 55.27C996.084 55.6527 995.519 55.844 994.838 55.844ZM989.938 53.1C989.938 52.204 990.148 51.3967 990.568 50.678C990.997 49.95 991.571 49.3807 992.29 48.97C993.018 48.5593 993.821 48.354 994.698 48.354C995.585 48.354 996.392 48.564 997.12 48.984C997.848 49.404 998.422 49.9733 998.842 50.692C999.262 51.4107 999.472 52.204 999.472 53.072C999.472 53.9773 999.257 54.794 998.828 55.522C998.408 56.2407 997.834 56.81 997.106 57.23C996.378 57.6407 995.58 57.846 994.712 57.846C993.825 57.846 993.018 57.636 992.29 57.216C991.562 56.796 990.988 56.222 990.568 55.494C990.148 54.766 989.938 53.968 989.938 53.1ZM990.666 53.114C990.666 53.842 990.843 54.5187 991.198 55.144C991.562 55.76 992.052 56.2547 992.668 56.628C993.293 56.992 993.975 57.174 994.712 57.174C995.431 57.174 996.098 56.9967 996.714 56.642C997.339 56.278 997.834 55.7833 998.198 55.158C998.562 54.5327 998.744 53.842 998.744 53.086C998.744 52.358 998.562 51.686 998.198 51.07C997.843 50.4447 997.358 49.95 996.742 49.586C996.126 49.2127 995.449 49.026 994.712 49.026C993.984 49.026 993.312 49.208 992.696 49.572C992.08 49.9267 991.585 50.4167 991.212 51.042C990.848 51.6673 990.666 52.358 990.666 53.114ZM1004.49 57.426C1004.49 56.894 1004.58 56.4273 1004.74 56.026C1004.91 55.6153 1005.2 55.214 1005.6 54.822C1006.01 54.43 1006.58 54.0053 1007.32 53.548C1008.2 53.0067 1008.8 52.5353 1009.11 52.134C1009.43 51.7233 1009.59 51.294 1009.59 50.846C1009.59 50.314 1009.43 49.8987 1009.11 49.6C1008.8 49.3013 1008.35 49.152 1007.77 49.152C1007.14 49.152 1006.65 49.348 1006.28 49.74C1005.93 50.1227 1005.74 50.7013 1005.71 51.476H1004.51C1004.53 50.412 1004.85 49.5813 1005.44 48.984C1006.04 48.3867 1006.83 48.088 1007.8 48.088C1008.38 48.088 1008.9 48.2047 1009.35 48.438C1009.81 48.662 1010.16 48.9887 1010.41 49.418C1010.67 49.838 1010.79 50.3327 1010.79 50.902C1010.79 51.5273 1010.6 52.0967 1010.2 52.61C1009.82 53.114 1009.13 53.674 1008.12 54.29C1007.25 54.822 1006.64 55.2793 1006.3 55.662C1005.96 56.0353 1005.77 56.46 1005.72 56.936H1010.85V58H1004.49V57.426ZM1015.84 58.112C1015.13 58.112 1014.5 57.916 1013.95 57.524C1013.41 57.1227 1012.99 56.5487 1012.69 55.802C1012.4 55.046 1012.25 54.1453 1012.25 53.1C1012.25 52.0547 1012.4 51.1587 1012.69 50.412C1012.99 49.656 1013.41 49.082 1013.95 48.69C1014.5 48.2887 1015.13 48.088 1015.84 48.088C1016.56 48.088 1017.19 48.2887 1017.73 48.69C1018.28 49.082 1018.7 49.656 1018.99 50.412C1019.29 51.1587 1019.44 52.0547 1019.44 53.1C1019.44 54.1453 1019.29 55.046 1018.99 55.802C1018.7 56.5487 1018.28 57.1227 1017.73 57.524C1017.19 57.916 1016.56 58.112 1015.84 58.112ZM1013.46 53.1C1013.46 54.4067 1013.67 55.3913 1014.09 56.054C1014.51 56.7167 1015.1 57.048 1015.84 57.048C1016.59 57.048 1017.17 56.7167 1017.59 56.054C1018.01 55.3913 1018.22 54.4067 1018.22 53.1C1018.22 51.7933 1018.01 50.8087 1017.59 50.146C1017.17 49.4833 1016.59 49.152 1015.84 49.152C1015.1 49.152 1014.51 49.4833 1014.09 50.146C1013.67 50.8087 1013.46 51.7933 1013.46 53.1ZM1020.9 57.426C1020.9 56.894 1020.98 56.4273 1021.15 56.026C1021.32 55.6153 1021.6 55.214 1022.01 54.822C1022.42 54.43 1022.99 54.0053 1023.73 53.548C1024.6 53.0067 1025.2 52.5353 1025.52 52.134C1025.84 51.7233 1026 51.294 1026 50.846C1026 50.314 1025.84 49.8987 1025.52 49.6C1025.2 49.3013 1024.75 49.152 1024.18 49.152C1023.55 49.152 1023.06 49.348 1022.69 49.74C1022.34 50.1227 1022.15 50.7013 1022.12 51.476H1020.91C1020.94 50.412 1021.25 49.5813 1021.85 48.984C1022.45 48.3867 1023.23 48.088 1024.2 48.088C1024.79 48.088 1025.31 48.2047 1025.76 48.438C1026.21 48.662 1026.57 48.9887 1026.82 49.418C1027.07 49.838 1027.2 50.3327 1027.2 50.902C1027.2 51.5273 1027 52.0967 1026.61 52.61C1026.23 53.114 1025.53 53.674 1024.53 54.29C1023.66 54.822 1023.05 55.2793 1022.71 55.662C1022.37 56.0353 1022.18 56.46 1022.13 56.936H1027.26V58H1020.9V57.426ZM1031.79 58.112C1030.84 58.112 1030.07 57.8507 1029.48 57.328C1028.9 56.8053 1028.6 56.082 1028.57 55.158H1029.77C1029.81 55.7553 1030.01 56.222 1030.37 56.558C1030.75 56.8847 1031.23 57.048 1031.83 57.048C1032.47 57.048 1032.97 56.8753 1033.34 56.53C1033.73 56.1847 1033.92 55.7413 1033.92 55.2C1033.92 54.6587 1033.73 54.234 1033.34 53.926C1032.96 53.618 1032.42 53.464 1031.73 53.464H1030.88V52.428H1031.73C1032.37 52.428 1032.84 52.2833 1033.16 51.994C1033.48 51.6953 1033.64 51.294 1033.64 50.79C1033.64 50.2767 1033.48 49.8753 1033.16 49.586C1032.84 49.2967 1032.4 49.152 1031.82 49.152C1030.61 49.152 1029.97 49.782 1029.88 51.042H1028.68C1028.72 50.1273 1029.03 49.4087 1029.6 48.886C1030.18 48.354 1030.93 48.088 1031.83 48.088C1032.43 48.088 1032.95 48.2 1033.4 48.424C1033.86 48.648 1034.21 48.9653 1034.45 49.376C1034.7 49.7773 1034.83 50.2347 1034.83 50.748C1034.83 51.2333 1034.71 51.6673 1034.48 52.05C1034.24 52.4233 1033.9 52.7127 1033.45 52.918C1034 53.1233 1034.41 53.4313 1034.69 53.842C1034.98 54.2433 1035.12 54.7147 1035.12 55.256C1035.12 55.788 1034.98 56.2733 1034.7 56.712C1034.42 57.1413 1034.03 57.482 1033.52 57.734C1033.02 57.986 1032.44 58.112 1031.79 58.112ZM1040.41 48.2H1044.22C1044.87 48.2 1045.44 48.3307 1045.94 48.592C1046.44 48.844 1046.83 49.1987 1047.1 49.656C1047.38 50.1133 1047.52 50.6267 1047.52 51.196C1047.52 51.9147 1047.3 52.5307 1046.88 53.044C1046.45 53.5573 1045.87 53.8933 1045.14 54.052L1047.79 58H1046.34L1043.78 54.192H1041.64V58H1040.41V48.2ZM1044.16 53.1C1044.85 53.1 1045.38 52.932 1045.74 52.596C1046.11 52.2507 1046.29 51.784 1046.29 51.196C1046.29 50.608 1046.11 50.146 1045.74 49.81C1045.38 49.4647 1044.85 49.292 1044.16 49.292H1041.64V53.1H1044.16ZM1049.64 48.2H1050.87V58H1049.64V48.2ZM1053.29 48.2H1054.83L1058.35 56.446L1061.88 48.2H1063.41V58H1062.22V50.132L1058.86 58H1057.81L1054.48 50.202V58H1053.29V48.2ZM1068.73 48.2H1070.18L1074.08 58H1072.81L1071.74 55.284H1067.14L1066.06 58H1064.83L1068.73 48.2ZM1071.32 54.22L1069.43 49.432L1067.56 54.22H1071.32ZM1079.58 58.112C1078.67 58.112 1077.85 57.902 1077.12 57.482C1076.39 57.0527 1075.82 56.46 1075.41 55.704C1075 54.948 1074.79 54.0893 1074.79 53.128C1074.79 52.148 1075 51.2753 1075.42 50.51C1075.85 49.7447 1076.44 49.152 1077.17 48.732C1077.91 48.3027 1078.73 48.088 1079.62 48.088C1080.39 48.088 1081.09 48.2467 1081.72 48.564C1082.37 48.872 1082.89 49.3107 1083.29 49.88C1083.7 50.44 1083.94 51.0793 1084.02 51.798H1082.8C1082.65 50.958 1082.29 50.314 1081.72 49.866C1081.16 49.4087 1080.48 49.18 1079.67 49.18C1078.97 49.18 1078.35 49.3433 1077.8 49.67C1077.25 49.9873 1076.82 50.4447 1076.5 51.042C1076.19 51.6393 1076.04 52.3253 1076.04 53.1C1076.04 53.8933 1076.2 54.5887 1076.52 55.186C1076.84 55.774 1077.28 56.2267 1077.83 56.544C1078.38 56.8613 1078.99 57.02 1079.67 57.02C1080.49 57.02 1081.18 56.7913 1081.75 56.334C1082.32 55.8673 1082.68 55.2233 1082.83 54.402H1084.03C1083.95 55.13 1083.71 55.774 1083.31 56.334C1082.9 56.894 1082.38 57.3327 1081.72 57.65C1081.08 57.958 1080.37 58.112 1079.58 58.112ZM1092.53 58.112C1091.79 58.112 1091.14 57.9813 1090.57 57.72C1090.01 57.4493 1089.57 57.076 1089.24 56.6C1088.92 56.1147 1088.75 55.5593 1088.72 54.934H1089.97C1090.03 55.5873 1090.3 56.1007 1090.77 56.474C1091.24 56.838 1091.85 57.02 1092.6 57.02C1093.33 57.02 1093.89 56.8567 1094.3 56.53C1094.71 56.194 1094.91 55.774 1094.91 55.27C1094.91 54.8407 1094.74 54.4907 1094.41 54.22C1094.08 53.9493 1093.53 53.744 1092.76 53.604L1091.54 53.366C1089.77 53.0487 1088.89 52.2273 1088.89 50.902C1088.89 50.37 1089.04 49.8893 1089.33 49.46C1089.61 49.0307 1090.03 48.6947 1090.56 48.452C1091.09 48.2093 1091.7 48.088 1092.39 48.088C1093.07 48.088 1093.68 48.2093 1094.21 48.452C1094.74 48.6947 1095.16 49.0353 1095.47 49.474C1095.79 49.9033 1095.97 50.4073 1096.02 50.986H1094.77C1094.69 50.4073 1094.44 49.964 1094.02 49.656C1093.6 49.3387 1093.04 49.18 1092.35 49.18C1091.66 49.18 1091.12 49.334 1090.73 49.642C1090.33 49.9407 1090.14 50.3373 1090.14 50.832C1090.14 51.2333 1090.29 51.5553 1090.6 51.798C1090.92 52.0313 1091.45 52.218 1092.2 52.358L1093.41 52.582C1094.33 52.75 1095.01 53.0533 1095.47 53.492C1095.93 53.9307 1096.16 54.4953 1096.16 55.186C1096.16 55.746 1096.01 56.25 1095.71 56.698C1095.41 57.1367 1094.99 57.482 1094.44 57.734C1093.88 57.986 1093.25 58.112 1092.53 58.112ZM1101.15 58.112C1100.44 58.112 1099.8 57.958 1099.24 57.65C1098.69 57.342 1098.25 56.908 1097.93 56.348C1097.63 55.788 1097.47 55.144 1097.47 54.416C1097.47 53.6787 1097.64 53.0207 1097.96 52.442C1098.29 51.854 1098.73 51.4013 1099.29 51.084C1099.86 50.7573 1100.49 50.594 1101.18 50.594C1101.84 50.594 1102.42 50.7387 1102.95 51.028C1103.47 51.3173 1103.88 51.7327 1104.16 52.274C1104.46 52.806 1104.61 53.4267 1104.61 54.136C1104.61 54.304 1104.6 54.4627 1104.58 54.612H1098.66C1098.71 55.396 1098.97 56.0073 1099.45 56.446C1099.92 56.8753 1100.51 57.09 1101.2 57.09C1101.69 57.09 1102.13 56.9827 1102.51 56.768C1102.9 56.5533 1103.18 56.2593 1103.37 55.886H1104.51C1104.31 56.5767 1103.9 57.1227 1103.3 57.524C1102.69 57.916 1101.98 58.112 1101.15 58.112ZM1103.42 53.66C1103.34 52.988 1103.1 52.4793 1102.69 52.134C1102.3 51.7793 1101.8 51.602 1101.2 51.602C1100.57 51.602 1100.03 51.784 1099.59 52.148C1099.14 52.5027 1098.85 53.0067 1098.73 53.66H1103.42ZM1109.45 60.996C1108.48 60.996 1107.68 60.7673 1107.04 60.31C1106.41 59.862 1106.04 59.26 1105.94 58.504H1107.18C1107.3 58.952 1107.56 59.3067 1107.98 59.568C1108.4 59.8387 1108.92 59.974 1109.52 59.974C1110.26 59.974 1110.84 59.7687 1111.27 59.358C1111.71 58.9473 1111.93 58.406 1111.93 57.734V56.698C1111.68 57.0807 1111.32 57.384 1110.85 57.608C1110.39 57.832 1109.89 57.944 1109.34 57.944C1108.69 57.944 1108.09 57.7853 1107.55 57.468C1107.02 57.1507 1106.6 56.712 1106.29 56.152C1105.98 55.592 1105.83 54.9667 1105.83 54.276C1105.83 53.5853 1105.98 52.96 1106.29 52.4C1106.6 51.84 1107.02 51.4013 1107.55 51.084C1108.09 50.7573 1108.69 50.594 1109.34 50.594C1109.89 50.594 1110.39 50.7107 1110.85 50.944C1111.32 51.168 1111.68 51.4713 1111.93 51.854V50.706H1113.11V57.734C1113.11 58.378 1112.96 58.9427 1112.66 59.428C1112.36 59.9227 1111.93 60.3053 1111.38 60.576C1110.83 60.856 1110.19 60.996 1109.45 60.996ZM1107.03 54.276C1107.03 54.78 1107.13 55.2373 1107.34 55.648C1107.55 56.0493 1107.85 56.362 1108.22 56.586C1108.6 56.81 1109.03 56.922 1109.51 56.922C1109.98 56.922 1110.41 56.81 1110.78 56.586C1111.16 56.3527 1111.44 56.0353 1111.65 55.634C1111.86 55.2327 1111.97 54.78 1111.97 54.276C1111.97 53.7627 1111.86 53.3053 1111.65 52.904C1111.44 52.5027 1111.16 52.19 1110.78 51.966C1110.41 51.742 1109.98 51.63 1109.51 51.63C1109.03 51.63 1108.6 51.742 1108.22 51.966C1107.85 52.19 1107.55 52.5027 1107.34 52.904C1107.13 53.3053 1107.03 53.7627 1107.03 54.276ZM1117.83 58.112C1117.02 58.112 1116.37 57.8647 1115.89 57.37C1115.41 56.8753 1115.17 56.194 1115.17 55.326V50.706H1116.35V55.046C1116.35 55.7087 1116.51 56.208 1116.83 56.544C1117.14 56.88 1117.58 57.048 1118.13 57.048C1118.76 57.048 1119.28 56.8427 1119.68 56.432C1120.09 56.0213 1120.3 55.452 1120.3 54.724V50.706H1121.47V58H1120.3V56.908C1120.04 57.2907 1119.69 57.5893 1119.26 57.804C1118.83 58.0093 1118.36 58.112 1117.83 58.112ZM1123.61 50.706H1124.79V51.966C1125.01 51.5553 1125.32 51.2427 1125.71 51.028C1126.11 50.8133 1126.56 50.706 1127.06 50.706H1127.6V51.784H1127.06C1126.34 51.784 1125.78 51.994 1125.38 52.414C1124.98 52.834 1124.79 53.4593 1124.79 54.29V58H1123.61V50.706ZM1131.96 58.112C1131.28 58.112 1130.65 57.9533 1130.08 57.636C1129.52 57.3093 1129.08 56.8613 1128.75 56.292C1128.43 55.7133 1128.28 55.0693 1128.28 54.36C1128.28 53.6413 1128.43 52.9973 1128.75 52.428C1129.08 51.8587 1129.52 51.4107 1130.08 51.084C1130.65 50.7573 1131.28 50.594 1131.96 50.594C1132.64 50.594 1133.26 50.7573 1133.82 51.084C1134.38 51.4107 1134.82 51.8587 1135.14 52.428C1135.46 52.9973 1135.63 53.6413 1135.63 54.36C1135.63 55.0693 1135.46 55.7133 1135.14 56.292C1134.82 56.8613 1134.38 57.3093 1133.82 57.636C1133.26 57.9533 1132.64 58.112 1131.96 58.112ZM1129.48 54.36C1129.48 54.8827 1129.58 55.3493 1129.79 55.76C1130 56.1707 1130.3 56.4927 1130.67 56.726C1131.05 56.95 1131.48 57.062 1131.96 57.062C1132.43 57.062 1132.86 56.95 1133.23 56.726C1133.6 56.4927 1133.89 56.1707 1134.1 55.76C1134.31 55.3493 1134.42 54.8827 1134.42 54.36C1134.42 53.828 1134.31 53.3567 1134.1 52.946C1133.89 52.5353 1133.6 52.218 1133.23 51.994C1132.86 51.7607 1132.43 51.644 1131.96 51.644C1131.48 51.644 1131.05 51.7607 1130.67 51.994C1130.3 52.218 1130 52.5353 1129.79 52.946C1129.58 53.3567 1129.48 53.828 1129.48 54.36ZM1139.9 58.112C1139 58.112 1138.28 57.902 1137.73 57.482C1137.18 57.062 1136.88 56.4787 1136.82 55.732H1137.97C1138.03 56.18 1138.23 56.5253 1138.57 56.768C1138.91 57.0013 1139.38 57.118 1139.96 57.118C1140.51 57.118 1140.93 57.0107 1141.23 56.796C1141.53 56.572 1141.68 56.2733 1141.68 55.9C1141.68 55.6107 1141.57 55.3913 1141.36 55.242C1141.14 55.0833 1140.75 54.9527 1140.18 54.85L1139.02 54.64C1138.3 54.5 1137.77 54.276 1137.44 53.968C1137.1 53.6507 1136.93 53.2447 1136.93 52.75C1136.93 52.106 1137.19 51.588 1137.7 51.196C1138.22 50.7947 1138.93 50.594 1139.83 50.594C1140.72 50.594 1141.41 50.7947 1141.92 51.196C1142.42 51.5973 1142.7 52.162 1142.77 52.89H1141.62C1141.57 52.47 1141.38 52.148 1141.06 51.924C1140.75 51.7 1140.32 51.588 1139.76 51.588C1139.22 51.588 1138.8 51.6907 1138.51 51.896C1138.22 52.092 1138.08 52.358 1138.08 52.694C1138.08 52.946 1138.18 53.1467 1138.39 53.296C1138.6 53.436 1138.99 53.562 1139.55 53.674L1140.73 53.898C1141.44 54.0287 1141.97 54.248 1142.31 54.556C1142.65 54.864 1142.83 55.284 1142.83 55.816C1142.83 56.4973 1142.56 57.0527 1142.04 57.482C1141.52 57.902 1140.8 58.112 1139.9 58.112ZM1147.28 59.806H1148.04C1148.41 59.806 1148.7 59.7313 1148.91 59.582C1149.11 59.4327 1149.29 59.176 1149.44 58.812L1149.76 58L1146.7 50.706H1147.97L1150.35 56.656L1152.67 50.706H1153.92L1150.41 59.358C1150.19 59.89 1149.91 60.2727 1149.57 60.506C1149.23 60.7393 1148.77 60.856 1148.18 60.856H1147.28V59.806ZM1158.45 48.2H1162.26C1162.91 48.2 1163.49 48.3307 1163.98 48.592C1164.48 48.844 1164.87 49.1987 1165.14 49.656C1165.42 50.1133 1165.56 50.6267 1165.56 51.196C1165.56 51.9147 1165.35 52.5307 1164.92 53.044C1164.49 53.5573 1163.91 53.8933 1163.18 54.052L1165.83 58H1164.39L1161.82 54.192H1159.68V58H1158.45V48.2ZM1162.2 53.1C1162.89 53.1 1163.42 52.932 1163.78 52.596C1164.15 52.2507 1164.33 51.784 1164.33 51.196C1164.33 50.608 1164.15 50.146 1163.78 49.81C1163.42 49.4647 1162.89 49.292 1162.2 49.292H1159.68V53.1H1162.2ZM1170.48 58.112C1169.77 58.112 1169.13 57.958 1168.57 57.65C1168.02 57.342 1167.58 56.908 1167.26 56.348C1166.96 55.788 1166.8 55.144 1166.8 54.416C1166.8 53.6787 1166.97 53.0207 1167.29 52.442C1167.62 51.854 1168.06 51.4013 1168.62 51.084C1169.19 50.7573 1169.82 50.594 1170.51 50.594C1171.17 50.594 1171.75 50.7387 1172.28 51.028C1172.8 51.3173 1173.21 51.7327 1173.49 52.274C1173.79 52.806 1173.94 53.4267 1173.94 54.136C1173.94 54.304 1173.93 54.4627 1173.91 54.612H1167.99C1168.04 55.396 1168.3 56.0073 1168.78 56.446C1169.25 56.8753 1169.84 57.09 1170.53 57.09C1171.02 57.09 1171.46 56.9827 1171.84 56.768C1172.23 56.5533 1172.51 56.2593 1172.7 55.886H1173.84C1173.64 56.5767 1173.23 57.1227 1172.63 57.524C1172.02 57.916 1171.31 58.112 1170.48 58.112ZM1172.75 53.66C1172.67 52.988 1172.43 52.4793 1172.02 52.134C1171.63 51.7793 1171.13 51.602 1170.53 51.602C1169.9 51.602 1169.36 51.784 1168.92 52.148C1168.47 52.5027 1168.18 53.0067 1168.06 53.66H1172.75ZM1177.76 58.084C1176.99 58.084 1176.36 57.8833 1175.87 57.482C1175.38 57.0807 1175.14 56.5627 1175.14 55.928C1175.14 55.2653 1175.4 54.7427 1175.91 54.36C1176.43 53.968 1177.13 53.772 1178.01 53.772H1180.35V53.408C1180.35 52.8293 1180.19 52.3907 1179.86 52.092C1179.54 51.7933 1179.09 51.644 1178.49 51.644C1177.96 51.644 1177.52 51.7653 1177.19 52.008C1176.86 52.2507 1176.66 52.582 1176.58 53.002H1175.35C1175.44 52.2647 1175.76 51.6813 1176.33 51.252C1176.9 50.8133 1177.63 50.594 1178.53 50.594C1179.47 50.594 1180.21 50.8413 1180.73 51.336C1181.25 51.8307 1181.51 52.5213 1181.51 53.408V56.362C1181.51 56.5953 1181.56 56.7633 1181.65 56.866C1181.75 56.9593 1181.92 57.006 1182.14 57.006H1182.46V58H1181.71C1181.32 58 1181 57.8973 1180.77 57.692C1180.54 57.4867 1180.4 57.1973 1180.36 56.824C1180.12 57.2253 1179.77 57.538 1179.31 57.762C1178.86 57.9767 1178.34 58.084 1177.76 58.084ZM1176.33 55.886C1176.33 56.25 1176.48 56.544 1176.77 56.768C1177.06 56.9827 1177.44 57.09 1177.93 57.09C1178.39 57.09 1178.8 56.9967 1179.16 56.81C1179.53 56.6233 1179.82 56.3667 1180.03 56.04C1180.24 55.7133 1180.35 55.3447 1180.35 54.934V54.682H1178.08C1177.52 54.682 1177.09 54.7893 1176.78 55.004C1176.48 55.2187 1176.33 55.5127 1176.33 55.886ZM1186.32 58.112C1185.42 58.112 1184.7 57.902 1184.15 57.482C1183.59 57.062 1183.29 56.4787 1183.24 55.732H1184.38C1184.45 56.18 1184.65 56.5253 1184.99 56.768C1185.33 57.0013 1185.79 57.118 1186.37 57.118C1186.92 57.118 1187.35 57.0107 1187.65 56.796C1187.94 56.572 1188.09 56.2733 1188.09 55.9C1188.09 55.6107 1187.99 55.3913 1187.77 55.242C1187.56 55.0833 1187.16 54.9527 1186.6 54.85L1185.43 54.64C1184.71 54.5 1184.19 54.276 1183.85 53.968C1183.52 53.6507 1183.35 53.2447 1183.35 52.75C1183.35 52.106 1183.6 51.588 1184.12 51.196C1184.64 50.7947 1185.35 50.594 1186.25 50.594C1187.13 50.594 1187.83 50.7947 1188.33 51.196C1188.84 51.5973 1189.12 52.162 1189.19 52.89H1188.04C1187.98 52.47 1187.79 52.148 1187.48 51.924C1187.17 51.7 1186.74 51.588 1186.18 51.588C1185.63 51.588 1185.22 51.6907 1184.93 51.896C1184.64 52.092 1184.5 52.358 1184.5 52.694C1184.5 52.946 1184.6 53.1467 1184.8 53.296C1185.02 53.436 1185.41 53.562 1185.97 53.674L1187.14 53.898C1187.86 54.0287 1188.39 54.248 1188.72 54.556C1189.07 54.864 1189.24 55.284 1189.24 55.816C1189.24 56.4973 1188.98 57.0527 1188.46 57.482C1187.93 57.902 1187.22 58.112 1186.32 58.112ZM1194.14 58.112C1193.42 58.112 1192.78 57.958 1192.22 57.65C1191.67 57.342 1191.23 56.908 1190.92 56.348C1190.61 55.788 1190.46 55.144 1190.46 54.416C1190.46 53.6787 1190.62 53.0207 1190.95 52.442C1191.27 51.854 1191.72 51.4013 1192.28 51.084C1192.84 50.7573 1193.47 50.594 1194.17 50.594C1194.82 50.594 1195.41 50.7387 1195.93 51.028C1196.45 51.3173 1196.86 51.7327 1197.15 52.274C1197.45 52.806 1197.6 53.4267 1197.6 54.136C1197.6 54.304 1197.59 54.4627 1197.57 54.612H1191.65C1191.69 55.396 1191.95 56.0073 1192.43 56.446C1192.91 56.8753 1193.49 57.09 1194.18 57.09C1194.67 57.09 1195.11 56.9827 1195.5 56.768C1195.88 56.5533 1196.16 56.2593 1196.35 55.886H1197.5C1197.29 56.5767 1196.89 57.1227 1196.28 57.524C1195.67 57.916 1194.96 58.112 1194.14 58.112ZM1196.41 53.66C1196.32 52.988 1196.08 52.4793 1195.68 52.134C1195.29 51.7793 1194.79 51.602 1194.18 51.602C1193.55 51.602 1193.02 51.784 1192.57 52.148C1192.12 52.5027 1191.84 53.0067 1191.72 53.66H1196.41ZM1202.43 60.996C1201.46 60.996 1200.66 60.7673 1200.03 60.31C1199.39 59.862 1199.02 59.26 1198.92 58.504H1200.17C1200.28 58.952 1200.54 59.3067 1200.96 59.568C1201.38 59.8387 1201.9 59.974 1202.5 59.974C1203.24 59.974 1203.83 59.7687 1204.25 59.358C1204.69 58.9473 1204.91 58.406 1204.91 57.734V56.698C1204.66 57.0807 1204.3 57.384 1203.83 57.608C1203.38 57.832 1202.87 57.944 1202.32 57.944C1201.67 57.944 1201.07 57.7853 1200.53 57.468C1200 57.1507 1199.58 56.712 1199.27 56.152C1198.96 55.592 1198.81 54.9667 1198.81 54.276C1198.81 53.5853 1198.96 52.96 1199.27 52.4C1199.58 51.84 1200 51.4013 1200.53 51.084C1201.07 50.7573 1201.67 50.594 1202.32 50.594C1202.87 50.594 1203.38 50.7107 1203.83 50.944C1204.3 51.168 1204.66 51.4713 1204.91 51.854V50.706H1206.09V57.734C1206.09 58.378 1205.94 58.9427 1205.64 59.428C1205.34 59.9227 1204.92 60.3053 1204.37 60.576C1203.82 60.856 1203.17 60.996 1202.43 60.996ZM1200.01 54.276C1200.01 54.78 1200.12 55.2373 1200.32 55.648C1200.54 56.0493 1200.83 56.362 1201.2 56.586C1201.59 56.81 1202.01 56.922 1202.49 56.922C1202.97 56.922 1203.39 56.81 1203.76 56.586C1204.14 56.3527 1204.43 56.0353 1204.63 55.634C1204.85 55.2327 1204.95 54.78 1204.95 54.276C1204.95 53.7627 1204.85 53.3053 1204.63 52.904C1204.43 52.5027 1204.14 52.19 1203.76 51.966C1203.39 51.742 1202.97 51.63 1202.49 51.63C1202.01 51.63 1201.59 51.742 1201.2 51.966C1200.83 52.19 1200.54 52.5027 1200.32 52.904C1200.12 53.3053 1200.01 53.7627 1200.01 54.276ZM1210.82 58.112C1210 58.112 1209.36 57.8647 1208.87 57.37C1208.39 56.8753 1208.16 56.194 1208.16 55.326V50.706H1209.33V55.046C1209.33 55.7087 1209.49 56.208 1209.81 56.544C1210.13 56.88 1210.56 57.048 1211.11 57.048C1211.74 57.048 1212.26 56.8427 1212.66 56.432C1213.07 56.0213 1213.28 55.452 1213.28 54.724V50.706H1214.46V58H1213.28V56.908C1213.02 57.2907 1212.67 57.5893 1212.24 57.804C1211.81 58.0093 1211.34 58.112 1210.82 58.112ZM1216.59 50.706H1217.77V51.966C1217.99 51.5553 1218.3 51.2427 1218.69 51.028C1219.09 50.8133 1219.54 50.706 1220.04 50.706H1220.58V51.784H1220.04C1219.32 51.784 1218.76 51.994 1218.36 52.414C1217.97 52.834 1217.77 53.4593 1217.77 54.29V58H1216.59V50.706ZM1224.94 58.112C1224.26 58.112 1223.63 57.9533 1223.06 57.636C1222.5 57.3093 1222.06 56.8613 1221.73 56.292C1221.42 55.7133 1221.26 55.0693 1221.26 54.36C1221.26 53.6413 1221.42 52.9973 1221.73 52.428C1222.06 51.8587 1222.5 51.4107 1223.06 51.084C1223.63 50.7573 1224.26 50.594 1224.94 50.594C1225.62 50.594 1226.24 50.7573 1226.8 51.084C1227.36 51.4107 1227.8 51.8587 1228.12 52.428C1228.44 52.9973 1228.61 53.6413 1228.61 54.36C1228.61 55.0693 1228.44 55.7133 1228.12 56.292C1227.8 56.8613 1227.36 57.3093 1226.8 57.636C1226.24 57.9533 1225.62 58.112 1224.94 58.112ZM1222.46 54.36C1222.46 54.8827 1222.56 55.3493 1222.77 55.76C1222.98 56.1707 1223.28 56.4927 1223.65 56.726C1224.03 56.95 1224.46 57.062 1224.94 57.062C1225.42 57.062 1225.84 56.95 1226.21 56.726C1226.59 56.4927 1226.88 56.1707 1227.08 55.76C1227.3 55.3493 1227.4 54.8827 1227.4 54.36C1227.4 53.828 1227.3 53.3567 1227.08 52.946C1226.88 52.5353 1226.59 52.218 1226.21 51.994C1225.84 51.7607 1225.42 51.644 1224.94 51.644C1224.46 51.644 1224.03 51.7607 1223.65 51.994C1223.28 52.218 1222.98 52.5353 1222.77 52.946C1222.56 53.3567 1222.46 53.828 1222.46 54.36ZM1232.88 58.112C1231.99 58.112 1231.26 57.902 1230.71 57.482C1230.16 57.062 1229.86 56.4787 1229.8 55.732H1230.95C1231.02 56.18 1231.22 56.5253 1231.55 56.768C1231.9 57.0013 1232.36 57.118 1232.94 57.118C1233.49 57.118 1233.91 57.0107 1234.21 56.796C1234.51 56.572 1234.66 56.2733 1234.66 55.9C1234.66 55.6107 1234.55 55.3913 1234.34 55.242C1234.12 55.0833 1233.73 54.9527 1233.16 54.85L1232 54.64C1231.28 54.5 1230.75 54.276 1230.42 53.968C1230.08 53.6507 1229.91 53.2447 1229.91 52.75C1229.91 52.106 1230.17 51.588 1230.68 51.196C1231.21 50.7947 1231.92 50.594 1232.81 50.594C1233.7 50.594 1234.39 50.7947 1234.9 51.196C1235.4 51.5973 1235.69 52.162 1235.75 52.89H1234.6C1234.55 52.47 1234.36 52.148 1234.04 51.924C1233.74 51.7 1233.3 51.588 1232.74 51.588C1232.2 51.588 1231.79 51.6907 1231.5 51.896C1231.21 52.092 1231.06 52.358 1231.06 52.694C1231.06 52.946 1231.16 53.1467 1231.37 53.296C1231.58 53.436 1231.97 53.562 1232.53 53.674L1233.71 53.898C1234.43 54.0287 1234.95 54.248 1235.29 54.556C1235.64 54.864 1235.81 55.284 1235.81 55.816C1235.81 56.4973 1235.55 57.0527 1235.02 57.482C1234.5 57.902 1233.79 58.112 1232.88 58.112ZM1238.22 58.084C1237.98 58.084 1237.78 58.0047 1237.61 57.846C1237.45 57.678 1237.37 57.4727 1237.37 57.23C1237.37 56.9873 1237.45 56.7867 1237.61 56.628C1237.78 56.46 1237.98 56.376 1238.22 56.376C1238.47 56.376 1238.67 56.46 1238.83 56.628C1238.99 56.7867 1239.08 56.9873 1239.08 57.23C1239.08 57.4727 1238.99 57.678 1238.83 57.846C1238.67 58.0047 1238.47 58.084 1238.22 58.084Z" fill="#F8F9FF"/>
<defs>
<clipPath id="clip0_6995_140596">
<rect width="85.3883" height="42" fill="white" transform="translate(120 32)"/>
</clipPath>
</defs>
</svg>
